<?xml version="1.0" encoding="UTF-8" standalone="no"?>
<!DOCTYPE svg PUBLIC "-//W3C//DTD SVG 1.1//EN" "http://www.w3.org/Graphics/SVG/1.1/DTD/svg11.dtd">
<svg width="100%" height="100%" viewBox="0 0 500 500" version="1.1" xmlns="http://www.w3.org/2000/svg" xmlns:xlink="http://www.w3.org/1999/xlink" xml:space="preserve" xmlns:serif="http://www.serif.com/" style="fill-rule:evenodd;clip-rule:evenodd;stroke-linejoin:round;stroke-miterlimit:2;">
    <g transform="matrix(1.02324,5.64013e-17,-5.68012e-17,1.01604,-0.927942,-1.47948)">
        <ellipse cx="250.113" cy="250.697" rx="210.183" ry="209.859" style="fill:rgb(125,78,197);"/>
    </g>
    <g transform="matrix(1,0,0,1,0,-0.824653)">
        <ellipse cx="250.113" cy="250.697" rx="210.183" ry="209.859" style="fill:rgb(220,86,78);"/>
    </g>
    <g transform="matrix(0.952076,0,0,0.953123,11.6336,10.9147)">
        <ellipse cx="250.113" cy="250.697" rx="210.183" ry="209.859" style="fill:url(#_Linear1);"/>
    </g>
    <g id="Ebene1" transform="matrix(1.40705,0,0,1.24213,-93.7224,-36.0923)">
        <g transform="matrix(1.21538,0,0,0.992415,-53.702,0.711373)">
            <path d="M268.075,96.799L249.331,95.208L249.331,180.085L268.075,96.799Z" style="fill:rgb(255,200,0);"/>
        </g>
        <g transform="matrix(1.21538,0,0,0.992415,-155.658,8.48713)">
            <path d="M265.675,109.292L251.067,123L300.532,183.959L265.675,109.292Z" style="fill:rgb(255,200,0);"/>
        </g>
        <g transform="matrix(-2.77556e-17,-1.21538,0.992415,5.55112e-17,17.1507,631.88)">
            <path d="M265.675,109.292L251.067,123L300.532,183.959L265.675,109.292Z" style="fill:rgb(255,200,0);"/>
        </g>
        <g transform="matrix(-0.859407,-0.859407,0.701743,-0.701743,364.796,674.33)">
            <path d="M265.675,109.292L251.067,123L300.532,183.959L265.675,109.292Z" style="fill:rgb(255,200,0);"/>
        </g>
        <g transform="matrix(-1.21538,-1.11022e-16,5.55112e-17,-0.992415,640.479,459.044)">
            <path d="M265.675,109.292L251.067,123L300.532,183.959L265.675,109.292Z" style="fill:rgb(255,200,0);"/>
        </g>
        <g transform="matrix(1.21538,0,0,0.992415,-108.382,40.8352)">
            <path d="M260.01,91.201L249.331,95.208L271.658,143.184L260.01,91.201Z" style="fill:rgb(255,200,0);"/>
        </g>
        <g transform="matrix(0.859407,-0.859407,0.701743,0.701743,-142.69,345.541)">
            <path d="M260.01,91.201L249.331,95.208L271.658,143.184L260.01,91.201Z" style="fill:rgb(255,200,0);"/>
        </g>
        <g transform="matrix(-2.77556e-17,-1.21538,0.992415,5.55112e-17,49.4988,584.605)">
            <path d="M260.01,91.201L249.331,95.208L271.658,143.184L260.01,91.201Z" style="fill:rgb(255,200,0);"/>
        </g>
        <g transform="matrix(-0.859407,-0.859407,0.701743,-0.701743,354.241,618.028)">
            <path d="M260.01,91.201L249.331,95.208L271.658,143.184L260.01,91.201Z" style="fill:rgb(255,200,0);"/>
        </g>
        <g transform="matrix(-1.21538,-1.11022e-16,5.55112e-17,-0.992415,593.204,426.696)">
            <path d="M260.01,91.201L249.331,95.208L271.658,143.184L260.01,91.201Z" style="fill:rgb(255,200,0);"/>
        </g>
        <g transform="matrix(-0.859407,0.973512,-0.619492,-0.701743,617.835,92.5851)">
            <path d="M260.01,91.201L249.331,95.208L271.658,143.184L260.01,91.201Z" style="fill:rgb(255,200,0);"/>
        </g>
        <g transform="matrix(1.21538,0,0,0.992415,-78.9828,-0.506486)">
            <path d="M258.644,151.77L252.269,153.073L259.307,183.232L258.644,151.77Z" style="fill:rgb(255,200,0);"/>
        </g>
        <g transform="matrix(0.859407,-0.859407,0.701743,0.701743,-151.134,295.519)">
            <path d="M258.644,151.77L252.269,153.073L259.307,183.232L258.644,151.77Z" style="fill:rgb(255,200,0);"/>
        </g>
        <g transform="matrix(-0.859407,-0.859407,0.701743,-0.701743,304.219,626.472)">
            <path d="M258.644,151.77L252.269,153.073L259.307,183.232L258.644,151.77Z" style="fill:rgb(255,200,0);"/>
        </g>
        <g transform="matrix(-1.21538,-1.11022e-16,5.55112e-17,-0.992415,563.804,468.038)">
            <path d="M258.644,151.77L252.269,153.073L259.307,183.232L258.644,151.77Z" style="fill:rgb(255,200,0);"/>
        </g>
        <g transform="matrix(-0.859407,0.859407,-0.701743,-0.701743,636.138,172.416)">
            <path d="M258.644,151.77L252.269,153.073L259.307,183.232L258.644,151.77Z" style="fill:rgb(255,200,0);"/>
        </g>
        <g transform="matrix(1.21538,0,0,0.992415,-17.2717,21.9338)">
            <path d="M309.787,137.806L298.678,118.74L249.331,180.085L309.787,137.806Z" style="fill:rgb(255,200,0);"/>
        </g>
        <g transform="matrix(1.21538,0,0,0.992415,-27.5495,12.0514)">
            <path d="M281.805,141.187L270.922,132.903L249.331,180.085L281.805,141.187Z" style="fill:rgb(255,200,0);"/>
        </g>
        <g transform="matrix(1.21538,0,0,0.992415,-39.9782,5.48926)">
            <path d="M262.038,153.249L255.793,150.762L249.331,180.085L262.038,153.249Z" style="fill:rgb(255,200,0);"/>
        </g>
        <g transform="matrix(0.975777,0.820787,-0.522306,0.796764,157.175,-140.746)">
            <path d="M262.038,153.249L255.793,150.762L249.331,180.085L262.038,153.249Z" style="fill:rgb(255,200,0);"/>
        </g>
    </g>
    <g transform="matrix(1,0,0,1,-117.863,-13.4997)">
        <path d="M209.18,285.524C215.527,285.524 220.209,282.747 223.885,279.123L220.023,273.728C217.088,276.637 213.332,278.806 208.968,278.806C201.324,278.806 193.839,272.167 193.839,263.572C193.839,255.029 201.219,248.258 208.941,248.258C213.12,248.258 217.008,250.241 219.997,253.23L223.885,247.967C219.706,243.894 214.601,241.54 209.074,241.461C197.093,241.461 187.069,251.537 187.069,263.545C187.069,275.579 197.093,285.524 209.18,285.524Z" style="fill:white;fill-rule:nonzero;"/>
        <path d="M247.345,285.524C259.485,285.524 269.429,275.632 269.429,263.572C269.429,251.405 259.485,241.461 247.371,241.461C235.231,241.461 225.34,251.405 225.34,263.572C225.34,275.632 235.231,285.524 247.345,285.524ZM247.345,278.753C238.934,278.753 232.084,271.903 232.084,263.519C232.084,255.082 238.934,248.205 247.345,248.205C255.755,248.205 262.659,255.082 262.659,263.519C262.659,271.903 255.755,278.753 247.345,278.753Z" style="fill:white;fill-rule:nonzero;"/>
        <path d="M287.705,242.201L275.565,242.201L275.565,284.836L287.705,284.836C301.247,284.836 309.684,276.664 309.684,263.572C309.684,250.374 301.247,242.175 287.705,242.201ZM287.758,278.171L282.23,278.171L282.23,248.84L287.679,248.84C297.042,248.84 302.913,254.5 302.913,263.545C302.913,272.538 297.068,278.171 287.758,278.171Z" style="fill:white;fill-rule:nonzero;"/>
        <path d="M341.211,248.787L341.211,242.201L315.82,242.201L315.82,284.836L341.211,284.836L341.211,278.171L322.512,278.171L322.512,266.375L338.645,266.375L338.645,259.71L322.512,259.71L322.512,248.787L341.211,248.787Z" style="fill:white;fill-rule:nonzero;"/>
        <path d="M360.465,285.55C369.114,285.55 375.673,280.684 375.673,273.12C375.673,266.402 370.436,263.148 363.692,260.186C358.508,257.964 354.567,256.774 354.567,253.442C354.567,250.427 357.688,247.993 361.603,247.993C364.697,247.993 367.633,249.607 368.955,252.49L373.928,249.051C372.182,244.37 367.633,241.434 361.55,241.434C353.88,241.434 347.823,246.301 347.823,253.283C347.823,259.975 353.377,262.567 358.376,264.788C363.348,266.931 368.955,269.311 368.955,273.252C368.955,276.505 365.332,278.806 360.545,278.806C356.445,278.806 352.901,276.902 350.997,273.569L345.707,277.351C348.14,282.271 353.456,285.55 360.465,285.55Z" style="fill:white;fill-rule:nonzero;"/>
        <path d="M381.413,284.836L388.104,284.836L388.104,270.051L395.668,270.051C403.92,270.051 410.665,263.863 410.665,256.272C410.665,248.522 403.92,242.201 395.668,242.201L381.413,242.201L381.413,284.836ZM395.668,263.439L388.104,263.413L388.104,248.84L395.668,248.84C400.244,248.84 403.973,252.146 403.973,256.219C403.973,260.213 400.244,263.466 395.668,263.439Z" style="fill:white;fill-rule:nonzero;"/>
        <path d="M437.801,284.836L445.048,284.836L425,241.328L424.603,241.328L404.555,284.836L411.802,284.836L414.711,278.356L434.892,278.356L437.801,284.836ZM417.303,272.617L424.815,255.954L432.3,272.617L417.303,272.617Z" style="fill:white;fill-rule:nonzero;"/>
        <path d="M481.441,284.836L469.037,267.777C473.93,266.19 477.474,261.403 477.474,255.901C477.474,248.311 470.967,242.201 463.033,242.201L449.782,242.201L449.809,284.836L456.5,284.836L456.5,268.332L461.737,268.332L473.216,284.836L481.441,284.836ZM456.474,262.778L456.474,248.84L463.192,248.84C467.159,248.84 470.571,251.776 470.571,255.743C470.571,259.551 467.212,262.805 463.192,262.778L456.474,262.778Z" style="fill:white;fill-rule:nonzero;"/>
        <path d="M516.538,284.836L499.902,263.122L515.031,242.201L507.255,242.201L492.602,262.619L492.602,242.201L485.937,242.201L485.937,284.836L492.602,284.836L492.602,264.206L508.366,284.836L516.538,284.836Z" style="fill:white;fill-rule:nonzero;"/>
        <path d="M533.36,285.55C542.008,285.55 548.568,280.684 548.568,273.12C548.568,266.402 543.331,263.148 536.586,260.186C531.402,257.964 527.462,256.774 527.462,253.442C527.462,250.427 530.583,247.993 534.497,247.993C537.591,247.993 540.527,249.607 541.85,252.49L546.822,249.051C545.076,244.37 540.527,241.434 534.444,241.434C526.774,241.434 520.717,246.301 520.717,253.283C520.717,259.975 526.271,262.567 531.27,264.788C536.243,266.931 541.85,269.311 541.85,273.252C541.85,276.505 538.226,278.806 533.439,278.806C529.339,278.806 525.795,276.902 523.891,273.569L518.601,277.351C521.035,282.271 526.351,285.55 533.36,285.55Z" style="fill:white;fill-rule:nonzero;"/>
    </g>
    <defs>
        <linearGradient id="_Linear1" x1="0" y1="0" x2="1" y2="0" gradientUnits="userSpaceOnUse" gradientTransform="matrix(420.365,0,0,419.719,39.9306,250.697)"><stop offset="0" style="stop-color:rgb(243,173,0);stop-opacity:1"/><stop offset="1" style="stop-color:rgb(255,117,0);stop-opacity:1"/></linearGradient>
    </defs>
</svg>
